<?xml version="1.0" encoding="UTF-8"?><svg id="_レイヤー_2" xmlns="http://www.w3.org/2000/svg" width="1553.42" height="1661.18" viewBox="0 0 1553.42 1661.18"><defs><style>.cls-1{fill:#d4c5a9;stroke-width:0px;}</style></defs><g id="_レイヤー_1-2"><path class="cls-1" d="M1553.42,810.07c-5.22,184.24-85.53,326.71-239.92,427.1-59.39,38.62-124.87,62.65-194.94,73.77-6.66,1.06-12.21,3.33-17.38,8.29-73.5,70.5-161.39,111.25-262.1,123.77-101.99,12.69-197.6-7.84-286.59-59.06-32.43-18.67-61.74-41.53-88.12-68.09-3.63-3.66-7.27-6.49-12.79-7.15-95.4-11.38-180.69-47.71-255.96-106.79-96.74-75.93-161.62-173-185.48-294.53-25.54-130.1-2.8-252.48,68.37-364.48,66.65-104.89,159.32-177.66,278.05-216.21,24.32-7.9,49.2-13.61,74.63-16.62,7.06-.84,13.02-3.47,18.76-7.9,61.36-47.37,127.54-86.07,201.99-109.05,91.54-28.26,182.37-23.19,272.22,8.13,64.99,22.66,123.45,57.13,177.51,99.32,7.2,5.62,14.64,8.76,23.71,10.3,213.03,36.06,383.66,197.33,420.62,414.17,4.78,28.04,6.96,56.34,7.43,85.03ZM776.63,1412.36c19.11-.89,36.44-1.35,53.71-3.42,100.4-12.03,188.68-50.84,263.5-119.26,5.69-5.21,11.75-9.04,18.99-11.83,94.87-36.54,178.26-90.26,245.33-167.34,88.52-101.74,126.54-219.57,108.06-353.86-12.93-93.97-54.87-174.3-120.37-242.43-67.71-70.43-149.85-117.62-241.89-148.54-5.77-1.94-10.91-4.57-15.74-8.28-49.53-38.1-102.7-69.86-161.48-91.61-86.48-32-174.34-39.12-263.56-12.66-71,21.06-134.59,56.67-193.41,101.13-7.41,5.6-15.19,9.7-24.02,12.57-111.47,36.21-204.45,99.12-274.77,193.44-66.39,89.04-96.11,189.34-86.14,300.31,8.07,89.84,43.94,168.36,101.71,237.01,71.65,85.14,162.49,142.61,265.64,181.85,7.85,2.99,14.44,7.05,20.67,12.64,86.91,77.94,188.74,118.09,303.77,120.29Z"/><path class="cls-1" d="M649.63,1576.19c4.18,2.41,7.2,3.99,10.07,5.83,12.53,8.02,17.24,19.63,15.02,34.08-2.14,13.94-10.24,22.76-24,25.91-20.51,4.69-40.79,1.3-60.89-2.73-31.79-6.38-63.47-13.32-95.18-20.07-2.58-.55-6.55.25-6.81-3.5-.25-3.6,3.75-2.54,5.85-3.25,6.46-2.21,9.49-7.09,10.81-13.23,6.32-29.55,12.56-59.12,18.72-88.7,1.35-6.48-.87-11.8-6.32-15.65-1.84-1.3-4.03-2.65-2.62-5.21,1.12-2.03,3.36-1.06,5.13-.66,39.29,8.92,79.13,15.34,118.01,26.03,6.63,1.82,13.15,4.49,19.25,7.67,14.16,7.39,19.65,17.07,18.14,30.11-1.65,14.21-10.26,21.37-25.18,23.37ZM603.52,1624.68c16.65-.05,25.51-6.22,27.89-17.71,2.22-10.74-3.76-19.79-16.69-25.13-2.32-.96-4.7-1.86-7.15-2.39-16.58-3.62-33.21-7.02-49.75-10.77-3.9-.88-5.78-.24-6.58,3.88-2.28,11.72-4.75,23.4-7.28,35.07-.74,3.41.04,5.26,3.73,6.01,19.39,3.92,38.57,8.95,55.84,11.04ZM609.48,1562.22c14.32.28,22.39-5.16,24.16-14.8,1.63-8.87-3.18-15.18-15.1-19.64-2.94-1.1-5.94-2.09-9-2.77-11.96-2.65-24.06-4.72-35.89-7.85-8.43-2.24-11.94.04-12.7,8.78-.6,6.83-2.64,13.55-4.22,20.27-.73,3.09-1.02,5.59,3.05,6.33,17.29,3.14,34.27,7.98,49.7,9.69Z"/><path class="cls-1" d="M1036.85,1577.24c26.12,13.7,47.33,31.59,73.85,39.95,1.85.58,4,.79,4.15,3.07.17,2.7-2.28,2.49-4.04,2.82-16.41,3.09-32.83,6.13-49.23,9.24-3.38.64-6.1-.59-8.84-2.36-25.17-16.23-50.38-32.4-75.55-48.63-2.29-1.48-5.87-2.56-4.96-6.04.86-3.3,4.67-2.6,7.22-3.16,9.53-2.09,19.2-3.59,28.7-5.82,4.54-1.07,9.06-2.82,13.15-5.07,7.59-4.16,11.59-10.65,9.94-19.59-1.7-9.18-7.54-14.51-16.64-15.57-17.28-2.02-33.67,3.84-50.41,6.49-3.81.6-3.56,3.92-3.02,6.81,5.5,29.41,11,58.83,16.58,88.23,1.23,6.47,4.99,10.77,11.62,12.17,1.85.39,4.14.36,4.23,2.82.11,3.3-2.81,2.73-4.82,3.12-18.57,3.53-37.15,7.02-55.73,10.5-1.79.34-3.99,1.14-4.89-1.23-.86-2.26,1.1-3.28,2.68-4.33,7.03-4.67,8.15-11.06,6.59-19.02-5.32-27.21-10.25-54.49-15.24-81.76-1.6-8.76-3.8-16.84-14.56-18.25-1.66-.22-3.15-1.19-2.94-3.04.35-3.18,3.3-2.41,5.22-2.78,22.59-4.33,45.19-8.62,67.81-12.76,13.01-2.38,26.04-4.78,39.14-6.62,13.93-1.96,27.81-1.3,40.79,4.74,19.76,9.19,24.1,31.81,9.49,48.01-7.61,8.44-17.74,12.83-30.26,18.05Z"/><path class="cls-1" d="M908.9,1657.94c-2.95,3.93-5.32,3.19-7.37,3.18-23.35-.13-46.69-.29-70.04-.6-2.19-.03-5.6,1.51-6.34-2.04-.6-2.88,2.49-2.94,4.37-3.93,4.85-2.56,12.5-4.57,9.65-11.57-2.66-6.55-5.1-14.62-16.06-14.3-23.01.66-46.07.35-69.08-.49-10.92-.4-13.1,7.92-15.84,14.5-2.74,6.59,4.29,8.55,8.95,11,1.56.82,4.2,1.04,3.82,3.45-.49,3.14-3.39,2.19-5.4,2.18-17.35-.1-34.7-.27-52.05-.51-1.7-.02-4.2.77-4.69-1.76-.49-2.53,1.97-2.84,3.69-3.33,9.81-2.77,15.71-10.07,21.05-18.03,18.97-28.28,37.93-56.56,56.87-84.85,5.65-8.44,4.88-10.6-4.2-15.91-2.66-1.56-8.47-1.27-7.15-5.71,1.1-3.69,6.14-1.57,9.37-1.59,12.3-.08,24.62.55,36.9.17,6.17-.19,9.59,1.96,12.83,7.17,19.45,31.34,39.33,62.41,58.99,93.62,7.85,12.46,14.73,25.84,31.69,29.36ZM817.93,1607.6c-8.74-14.26-16.92-27.55-25.03-40.89-1.78-2.93-3.33-3.44-5.4-.3-8.75,13.26-17.55,26.49-27.3,41.19h57.72Z"/><path class="cls-1" d="M473.22,35.52c2.34.87,5.29,1.89,8.17,3.07,31.48,12.9,62.95,25.87,94.46,38.7,2.45,1,5.35,3.78,7.72,1.53,2.14-2.04.3-5.36-.27-8.08-2.37-11.41-4.78-22.82-7.17-34.23-1.5-7.16-4.07-13.36-12.53-14.63-1.79-.27-4.02-.69-3.71-3.3.25-2.04,2.3-1.83,3.7-2.14,13.23-2.93,26.47-5.81,39.72-8.59,1.09-.23,2.89-.02,3.44.69,1.07,1.4.37,3.23-1.05,4.07-9.3,5.44-7.18,13.53-5.42,21.75,6.27,29.27,12.44,58.56,18.58,87.85.61,2.89,3.17,6.37-.18,8.65-2.5,1.71-5.38-.57-7.95-1.64-42.17-17.58-84.32-35.18-126.51-52.71-2.85-1.18-6.32-4.22-8.71-2.46-3.15,2.31-.44,6.36.22,9.6,3.36,16.36,6.8,32.7,10.21,49.04,1.55,7.39,3.72,14.24,12.8,15.4,1.6.2,3.43.89,3.46,2.64.06,2.63-2.43,2.35-4.17,2.72-12.63,2.71-25.27,5.41-37.9,8.08-2.03.43-4.5,1.96-5.71-1-.95-2.32,1.26-3.27,2.8-4.23,6.45-4,7.06-9.92,5.63-16.58-5.42-25.26-10.97-50.49-16.15-75.8-1.53-7.48-4.52-13.03-12.55-14.61-1.5-.3-3.35-.26-3.52-2.36-.15-1.95,1.4-2.7,2.94-3.03,12.94-2.78,25.88-5.49,39.64-8.39Z"/><path class="cls-1" d="M919.91,4.77c22.72.56,47.36,5.34,71.2,14.15,3.57,1.32,7.26,3.51,10.87,1.55,8.37-4.54,9.01-1.41,7.15,6.11-1.82,7.32-2.8,14.85-4.21,22.28-.27,1.44-.05,3.33-2.08,3.77-1.72.37-2.89-.37-3.79-1.96-11.53-20.21-32.25-23.61-52.19-28.05-12.83-2.86-25.77-1.97-38.28,2.27-18.73,6.34-30.44,19.09-32.33,39.02-1.84,19.36,7.71,33.36,23.99,42.73,15.4,8.87,32.21,12.21,50.03,10.9,6.34-.47,9.61-2.69,10.19-9.43.8-9.22,2.85-18.46-7.08-24.46-1.1-.67-2.01-1.7-1.34-3.09,1.1-2.29,3.27-1.45,4.97-1.25,13.15,1.52,26.28,3.17,39.42,4.79.94.12,1.88.25,2.79.49,4.13,1.13,10.75-1.26,12.06,2.89,1.57,5-5.93,3.45-8.56,6.39-4.61,5.16-5.64,11.32-5.57,17.58.12,10.56-4.73,15.15-15.01,17.5-39.53,9.04-77.04,4.44-112.47-15.13-14.46-7.99-25.74-19.52-30.89-35.62-8.61-26.91,4.92-53.65,32.2-65.35,14.82-6.36,30.38-7.91,48.93-8.09Z"/><path class="cls-1" d="M1368.44,270.31c.94-4.33-1.13-7.35-5.48-10.06-17.92-11.18-35.89-22.34-53.23-34.38-8.2-5.7-14.45-.68-19.74,2.79-5.29,3.47-.44,8.96,2.04,13.23.87,1.5,3.13,2.86,1.37,4.86-2.18,2.48-4.06.08-5.73-.97-13.05-8.27-26.05-16.62-39-25.05-1.64-1.07-4.68-1.87-3.25-4.77,1.15-2.33,3.35-.75,5.01-.29,6.73,1.89,13.18.82,19.37-1.93,30.53-13.55,60.97-27.28,91.55-40.73,9.3-4.09,4.11-9.28,1.79-14.49-1.03-2.31-5.18-4.35-1.94-7.11,2.23-1.9,4.6,1.03,6.62,2.3,9.88,6.21,19.53,12.79,29.55,18.75,5.01,2.98,6.48,6.72,6.46,12.35-.07,35.97.24,71.93.3,107.9.02,9.93.42,19.63,7.98,27.31,1.12,1.14,2.17,2.48.61,4.02-1.56,1.55-2.97.23-4.2-.56-18.86-12.06-37.7-24.16-56.51-36.3-1.24-.8-3.06-1.78-2.39-3.59,1.12-3.01,3.71-1.39,5.7-1.27,11.61.69,13.09-.55,13.11-12.01ZM1369.08,241.59c0-15.87-.11-29.33.06-42.78.06-5.01-1.5-6-6.03-3.87-12.45,5.86-25.02,11.46-38.9,17.79,14.92,9.59,28.74,18.48,44.88,28.86Z"/><path class="cls-1" d="M447.96,158.52c-.19,4.58-2.2,5.12-3.85,5.83-19.68,8.47-39.39,16.89-59.09,25.34-1.99.85-4.33,2.65-6.02.49-1.94-2.47,1.16-3.66,2.38-5.27,2.92-3.86,8.77-8.1,3.92-12.77-4.43-4.26-9.44-9.92-18.06-5.92-19.14,8.88-38.57,17.24-58.22,24.93-8.91,3.48-8.16,10.8-8.19,17.1-.04,6.66,6.48,6.45,11.53,6.73,1.82.1,4.22-.69,4.84,1.64.64,2.41-1.8,2.99-3.47,3.71-14.75,6.38-29.53,12.7-44.29,19.06-1.49.64-3.18,1.44-4.31-.04-1.71-2.23.53-3.3,1.89-4.41,6.22-5.09,9.04-12.01,10.4-19.61,5.65-31.65,11.03-63.35,16.87-94.96,1.89-10.23-4.39-10.81-11.48-11.2-2.38-.13-5.86,1.22-6.56-1.95-.73-3.29,3.31-3.05,5.18-4.45.25-.18.57-.27.86-.39,12.8-5.28,25.68-14.88,38.37-14.62,12.83.26,23.4,13.52,34.98,21.05,19.3,12.56,38.27,25.61,57.46,38.34,10.43,6.92,20.44,15.18,34.86,11.39ZM354.95,150.96c-12.82-8.84-24.18-16.64-35.5-24.5-3.01-2.09-5.16-2.27-5.87,2.05-1.98,12.09-3.97,24.17-5.98,36.25-.8,4.8.39,6.5,5.44,4.26,13.17-5.85,26.45-11.42,41.92-18.06Z"/><path class="cls-1" d="M834.4,114.8c-10.86,3.54-66.07,5.43-75.24,3.65-1.03-2.85,1.52-2.9,2.98-3.77,4.44-2.66,11.67-4.52,9.07-11.11-2.59-6.55-6.17-13.13-16.45-12.21-20.08,1.8-40.3,2.55-60.47,2.53-9.98-.01-12.24,6.96-14.62,13.26-2.47,6.54,4.08,8.08,8.54,10.12,1.74.79,4.01,1.24,3.63,3.57-.4,2.5-2.89,1.89-4.64,1.96-15.44.65-30.88,1.28-46.32,1.8-1.72.06-4.25,1.02-5.02-1.21-1.09-3.17,2.06-3.27,3.9-4.03,8.04-3.34,12.86-9.89,17.12-16.99,15.73-26.21,31.44-52.42,47.12-78.66,5.48-9.16,4.94-10.52-4.98-15.45-2.25-1.12-6.67-.86-5.65-4.83.76-2.97,4.36-1.52,6.69-1.65,11.65-.63,23.33-.77,34.96-1.7,5.78-.47,9.11,1.53,12.36,6.21,19.94,28.75,40.29,57.21,60.29,85.92,6.9,9.89,13.96,19.32,26.73,22.61ZM723.12,32.58c-7.96,13.42-15.17,25.49-22.31,37.61-2.33,3.95-.3,4.96,3.41,4.81,13.49-.54,26.98-1.07,40.48-1.52,5.51-.19,4.53-2.74,2.36-5.91-7.61-11.12-15.22-22.24-23.93-34.99Z"/><path class="cls-1" d="M1152.24,185.34c7.33-3.96,14.79-1.14,17.58-7.24,4.95-10.86,9.37-21.98,13.48-33.19.68-1.84-1.2-4.75-2.16-7.05-9.22-22.08-18.48-44.14-27.76-66.2-2.21-5.25-4.71-10.32-9.26-14.05-1.4-1.15-3.55-2.33-2.3-4.52,1.63-2.87,3.99-.8,5.79-.08,16.63,6.74,33.21,13.61,49.8,20.45,1.99.82,4.72,1.31,4,4.24-.6,2.43-3.09,1.53-4.82,1.5-6.16-.1-6.82,2.51-4.52,7.69,6.01,13.52,11.78,27.15,17.43,40.82,1.78,4.31,3.91,5.66,8.6,3.87,14.41-5.49,28.95-10.68,43.51-15.76,5.28-1.84,6.69-4.33,2.77-8.8-1.22-1.39-3.04-2.86-1.56-4.84,1.5-2.01,3.55-.47,5.11.17,14.02,5.65,28,11.39,41.95,17.19,1.62.67,3.79,1.35,3.04,3.92-.45,1.57-2,1.44-3.13,1.29-9.64-1.22-17.74,3.69-26.27,6.68-18.71,6.57-37.25,13.63-55.97,20.2-5.16,1.81-8.43,4.65-10.29,9.9-2.95,8.3-6.31,16.47-9.98,24.48-2.94,6.42-3.32,12.05,2.4,17.08,1.18,1.04,2.57,2.27,1.85,3.97-.77,1.82-2.58,1.55-4.06.94-17.65-7.21-35.28-14.47-55.23-22.67Z"/><path class="cls-1" d="M240.9,257.78c-5.1,7.28-12.59,10.61-19.14,15.14-8.81,6.1-17.79,11.95-26.76,17.82-1.44.94-3.06,2.81-4.97,1.11-1.99-1.76-.33-3.52.75-4.9,4.72-6.05,2.17-10.79-.9-17.06-9.45-19.29-23.97-28.63-45.43-30.55-16.83-1.51-33.35-6.48-50.04-9.76-5.58-1.1-11.26-1.54-16.84.28-1.61.53-3.23.67-4.05-1.09-.88-1.88.69-2.83,1.97-3.68,15.73-10.5,31.47-20.98,47.23-31.43,1.27-.84,2.9-2.01,4.26-.88,1.86,1.55.77,3.37-.43,4.96-4.64,6.15-2.69,8.03,4.57,9.06,13.71,1.94,27.31,4.75,40.82,7.84,5.73,1.31,8.44.76,9.84-5.65,3.15-14.45,6.9-28.78,10.88-43.03,1.74-6.21.9-9.31-6.22-8.17-1.54.25-3.17,1-4.1-.88-1.21-2.43.92-3.34,2.37-4.31,12.83-8.59,25.7-17.14,38.59-25.64,1.21-.8,2.66-2.26,4.11-.95.67.61.99,2.65.49,3.35-10.7,14.97-10.13,33.5-15.88,50.02-1.03,2.96-1.2,6.27-2.46,9.11-9.98,22.36-5.97,41.69,10.04,60.26,6.29,7.29,12.11,9.93,21.31,9.05Z"/><path class="cls-1" d="M1061.57,48.88c.47-6.45-1.39-9.92-4.85-12.6-1.52-1.18-3.37-2.39-2.47-4.52.99-2.38,3.15-1.26,4.87-.82,16.45,4.21,32.9,8.45,49.35,12.7,1.81.47,4.11.87,4.28,3.02.2,2.64-2.32,2.4-4.09,2.72-6.76,1.21-10.23,5.67-11.85,11.96-6.83,26.49-13.59,53.01-20.55,79.47-1.68,6.38.38,11.04,5.3,14.88,1.47,1.15,3.46,2.47,1.93,4.45-.64.83-2.98.88-4.36.53-16.77-4.24-33.51-8.62-50.25-12.95-1.53-.4-3.31-.68-3.47-2.59-.2-2.56,1.84-2.93,3.76-3.13,6.17-.64,9.69-4.44,11.15-10.03,7.11-27.07,14.05-54.19,21.03-81.3.31-1.21.31-2.5.22-1.78Z"/><path class="cls-1" d="M671.88,894.6c11.52-27.85,18.02-56.54,12.52-86.72-2.98-16.36-9.74-31.32-21.44-43.51-3.23-3.37-7.04-6.41-11.09-8.73-17.39-10-22.67-6.96-22.54,12.58.74,117.08,1.48,234.16,2.19,351.23.07,12.29,1.93,24.49.71,36.86-4.34,43.95-44.09,74.42-86.88,64.6-41.22-9.46-70.99-33.21-83.68-75.01-3.32-10.94-4.06-22.26-.05-33.97,6.09,17.73,22.38,27.98,44,28.18,18.19.17,30.51-8.64,37.18-26.48,4.05-10.83,4.8-22.23,5.1-33.53,2.23-85.21-.36-170.4-1.56-255.59-.01-.84-.4-1.68-.73-2.97-1,.66-1.93.96-2.35,1.6-33.47,49.81-60.54,102.55-73.43,161.69-1.88,8.61-2.94,17.38-2.86,26.27.24,25.96,13.1,39.73,39.03,41.52,9.96.68,19.88-.22,29.99-.89-25.13,17.66-51.6,33.18-83.43,26.78-24.5-4.93-40.1-23.38-49.52-45.76-20.34-48.3-9.76-93.43,17.22-135.71,30.68-48.08,72.07-85.82,118.49-118.26,5.52-3.86,7.99-7.58,7.76-14.44-.54-16.34-.17-32.72-.17-49.25-3.96-.3-5.98,3-8.54,4.98-16.24,12.53-32.53,25.01-50.49,35.04-16.26,9.08-33.66,14.1-52.43,13.75-31.7-.58-52.3-20.01-55.5-51.78-4.45-44.31,12.41-80.64,41.62-112.36,10.39-11.28,21.72-21.58,36.35-31.12-5.98,13.99-11.23,26-16.25,38.1-5.21,12.57-6.79,25.76-3.73,38.96,5.52,23.82,24.65,30.66,44.31,30.08,23-.68,42.13-11.71,59.91-25.43,2.84-2.19,3.74-4.67,3.51-8.13-2.41-35.59-6.02-71-15.8-105.48-2.51-8.84-6.05-17.27-11.59-24.69-6.62-8.87-13.47-11.19-20.97-7.29-9.82,5.11-14.96,15.73-12.05,25.03.36,1.15.98,2.22,1.57,3.52-15.41-3.07-25.78-15.03-24.89-31.57,3.35-62.18,57.99-107.11,116.91-94.91,19.91,4.12,32.66,16.71,40.5,34.91,10.62,24.65,11.93,50.71,11.72,77.02-.07,9.29-.01,18.59-.01,28.81,9.12-7.81,18.09-15.1,28.77-19.83,29-12.85,61.93-.16,69.49,27.99,5.7,21.23-2.18,39.97-15.93,55.92-18.97,22.01-46.12,29.29-72.49,37.81,11.27-7.67,22.6-15.26,33.8-23.03,5.46-3.79,10.48-8.19,14.44-13.54,5.73-7.72,2.36-14.67-7.36-15.57-5.29-.49-9.98,1.49-14.24,4.28-13.84,9.08-24.69,21.53-36.48,32.91-2.86,2.76-2.21,6.41-2.18,9.83.2,24.61.93,49.24.43,73.84-.19,9.56,3.08,10.63,11.28,9.16,24.99-4.49,48.35-.57,66.05,18.93,22.12,24.37,25.32,53.61,16.73,84.22-7.58,27.01-24.2,47.38-49.31,60.46-.54-.43-1.08-.85-1.62-1.28Z"/><path class="cls-1" d="M717.83,1089.24c42.4.68,70.17-19.09,90.13-52.26,27.07-44.99,41.82-94.25,50.75-145.51,2.05-11.78,3.08-23.75,4.53-35.63.4-3.23,1.26-6.99-4.41-4.7-49.09,19.86-95.73-16.21-115-54.67-28.68-57.27-28.94-115.35-5.57-173.91,15.27-38.27,34.46-74.64,64.59-103.6,34.93-33.57,76.41-47.84,124.83-38.15,8.31,1.66,10.63,3.05,18.45,8.93-7.71.51-14.01.7-20.26,1.38-31.52,3.45-55.08,19.65-70.48,46.77-25.48,44.86-38.67,93.62-42.08,144.92-2.56,38.51,1.45,76.24,17.4,111.97,3.62,8.1,8.12,15.67,14.48,22.01,2.94,2.93,6.16,5.48,10.19,6.64,8.09,2.32,10.87-.2,9.49-8.4-9.18-54.52-11.88-109.07-.4-163.62,3.39-16.1,8.39-31.68,17.26-45.75,10.73-17.04,25.25-28.83,46.25-27.81,22.87,1.12,35.99,16.15,44.75,35.68,6.81,15.18,9.35,31.33,9.93,47.84,1.38,39.71-1.34,78.81-17.29,115.94-7.19,16.75-17.04,31.77-30.82,43.71-6.04,5.23-8.27,11.12-9.23,18.62-6.53,51.16-18.02,101.11-38.21,148.76-11.76,27.75-26.77,53.41-47.72,75.53-25.85,27.3-57.56,36.01-93.82,31.61-8.62-1.04-17.35-1.96-27.73-6.29ZM913.42,713.92c-.18,23.55,3.91,51.94,8.37,80.28.45,2.89-.15,7.21,3.09,8.13,3.02.86,5.42-2.6,7.77-4.6,5.31-4.53,9.81-9.78,13.53-15.7,16.3-26,19.73-54.71,17.42-84.49-1.06-13.67-4.87-26.68-12.9-38.05-4.48-6.33-10.09-12.25-18.53-10.94-9.01,1.4-12.13,9.26-14.36,17.04-4.04,14.08-4.65,28.55-4.39,48.33Z"/><path class="cls-1" d="M893.22,1246.63c1.26-3.67,4.67-4.35,7.09-6.01,41.08-28.21,70.24-64.64,80.48-114.6,5.87-28.67.9-56.49-5.42-84.24-9.34-41-16.47-82.18-15.11-124.53,1.99-62.06,20.22-119.61,47.12-174.86,11.02-22.64,23.29-44.57,38.07-66.63,1.85,5.2-.5,8.44-1.53,11.63-11.06,34.24-19.84,69-25.91,104.5-7.87,46.05-2.79,91.12,14.24,133.88,27.92,70.08,33.4,142.64,28.97,216.63-1.98,33.11-8.57,65.61-18.57,97.33-1.38,4.37-2.46,7.89-8.54,7.86-46.09-.25-92.17-.15-138.26-.19-.81,0-1.62-.45-2.62-.75Z"/><path class="cls-1" d="M1067.98,955.98c-.99-1.79-1.25-3.35.56-4.97,29.78-26.68,43.38-61.98,52.67-99.49,14.37-57.98,18.74-116.3,4.44-174.98-6.09-24.99-14.64-48.96-33.4-67.8-29.87-30.01-69.15-24.31-89.44,13-1.01,1.85-1.62,3.98-5.42,5.8,4.07-18.88,10.16-35.07,22.09-48.69,26.7-30.49,59.5-35.05,93.7-12.95,27.31,17.64,43.04,43.71,52.8,73.85,13.77,42.48,15.33,86.04,10.29,130-3.79,32.98-10.89,65.19-24.04,95.89-16.57,38.7-41.62,69.53-80.51,87.72-1.36.63-2.5,1.73-3.74,2.61v.02Z"/><path class="cls-1" d="M799.99,279.75c2.05,10.44,8.19,19.58,8.75,30.6,1.88,37.3-3.1,72.63-26.68,103.39-3.91,5.11-5.77,4.76-9.58.13-26.62-32.31-33.28-69.51-27.21-109.81,1.23-8.16,4.96-15.55,10.22-21.98,10.64-12.99,20.87-15,36.55-7.46.66.32,1.64-.02,2.47-.05l-.15-.28c-.83,2.25.31,2.54,2.14,2.15l-.26-.26c-.03,2.74.05,5.36,4.06,3.99l-.32-.43ZM778.68,296.85c-.8-.04-1.6-.09-2.39-.13v43.44c3.48-14.36,2.7-28.85,2.39-43.31Z"/><path class="cls-1" d="M794.52,274.58c4.25-4.86,9.38-2.14,13.81-.98,32.85,8.57,50.9,31.72,59.67,62.91,3.56,12.64,4.46,25.96,3.97,39.22-.15,4.05.07,8.2-2.78,12.24-17.16-9.1-34.3-18.22-50.22-29.44-3.7-2.61-5.38-5.16-4.41-10.86,4.16-24.36,3.56-48.14-14.56-67.92,0,0,.32.43.32.43-.67-2.03-1.65-3.73-4.06-3.99l.26.26c0-1.43-.73-2.13-2.14-2.15l.15.28ZM819.28,308.46c-.22.04-.45.13-.65.08-.09-.02-.12-.32-.17-.49.33.16.66.33.99.49,7.8,6.96,15.6,13.91,23.41,20.87-6.2-8.9-12.85-17.28-23.56-20.95Z"/><path class="cls-1" d="M710.98,327.32c9.74-4.35,15.4-14.46,26.5-18.68.45,14.7-1.45,29.04,1.85,43.13.93,3.99-3.4,5.74-6.14,7.63-15.53,10.73-32.09,19.67-48.86,28.49-13.67-58.82,26.78-117.85,73.86-114.79-7.65,8.39-13.7,17.4-17.33,27.86-1.26,3.63-4.44,5.04-7.4,6.83-8.6,5.23-16.82,10.93-22.29,19.71-1.52.88-3.05,1.77-4.57,2.65-.64,1.61-1.28,3.23-2.07,5.23,2.75-1.39,4.92-2.55,2.05-5.36,3.78,2.87,4.06.02,4.42-2.69Z"/><path class="cls-1" d="M1355.72,933.74c.33-11.23,5.82-11.21,14.02-7.61,7.71,3.39,15.87,5.75,24,8.62,1.93,16.95-14.12,16.18-23.56,22.27,1.09,4.01,4.96,3.89,7.48,4.46,4.47,1,7.54,1.18,5.28,7.36-2.13,5.79-3.99,5.58-9.08,3.06-7.24-3.59-15.32-5.48-22.99-8.23-1.94-.7-6.38.58-4.81-3.52,1.26-3.3.17-8.74,5.61-9.4,8.62-1.06,15.55-6.04,24.95-9.61-7.45-3.76-13.7-6.17-20.88-7.38Z"/><path class="cls-1" d="M159.74,878.54c6.69-.82,12.32-1.21,17.81-2.32,2.7-.54,5.34-1.78,4.89,2.31-.32,2.92,3.46,7.69-3.51,8.49-9.95,1.15-19.84,2.88-29.69,4.72-3.21.6-3.02-1.75-3.28-3.12-1.19-6.24-3.63-12.54,3.57-17.55,3.39-2.36,6.4-5.97,8.06-10.8-3.15-1.19-6.2-.96-9.07-.13-3.27.95-6.8,3.51-7.25-2.65-.29-4.01-1.99-8.05,5.56-7.91,8.36.16,16.76-2.22,25.17-3.17,2.07-.23,5.71-4.26,6.26,1.17.35,3.5,2.87,7.24-2.01,10.79-6.79,4.93-11.33,12.25-16.5,20.15Z"/><path class="cls-1" d="M1363.23,715.25c5.16-1.39,11.97.18,13.65-4.96,1.22-3.73-.64-10.46-3.58-13.04-3.79-3.33-9.05.81-13.5,2.57q-5.32-11.61,6.14-14.68c6.35-1.72,12.61-3.83,19.03-5.23,2.71-.59,7.28-6.19,8.16,2.2.45,4.32,4.57,8.88-4.45,9.26-7.64.33-4.42,5.95-3.71,10.61.9,5.88,4,8.58,8.72,5.69,7.38-4.54,6.07,1.36,7.58,4.89,2.09,4.88.84,6.23-4.39,7.05-8.01,1.26-16.2,2.96-23.59,6.16-6.32,2.74-8.01,1.03-8.72-4.73-.23-1.84-.82-3.64-1.32-5.8Z"/><path class="cls-1" d="M1390.52,917.37c1.53-6.3,3.03-11.73,4.11-17.25.45-2.31,1.11-5.51-2.51-6.04-3.5-.52-2.67,2.66-3.09,4.59-.67,3.05-1.45,6.09-1.79,9.19-.48,4.32-3.49,2.87-5.6,2.4-1.69-.38-4.63-.44-2.75-4.17,1.5-2.98,1.79-6.59,2.52-9.94.54-2.49-.15-4.16-3.01-4.72-2.82-.55-3.9.41-4.4,3.18-1.05,5.84-2.79,11.57-3.55,17.44-.37,2.87-.18,5.42-3.86,3.65-1.84-.89-5.97.41-4.55-4.89,2.75-10.25,4.41-20.78,6.62-31.17.59-2.79,1.19-3.47,4.91-2.22,9.13,3.07,18.71,5.15,28.27,6.36,3.74.47,4.83.56,3.96,4.23-2.37,10.03-5.01,20.02-6.76,30.16-.59,3.42-1.44,4.39-4.47,3.75-2.83-.6-5.88-1.18-4.04-4.53Z"/><path class="cls-1" d="M178.92,766.11c-.03,18.64-9.89,27.91-24.91,23.41-10.19-3.05-15.31-13.98-12.6-27.14.5-2.45,1.02-5.06,2.29-7.13,1.2-1.95,0-7.55,5.62-4.39,3.32,1.87,7.15,2.72,3.07,7.67-3.02,3.66-2.33,8.41-1.78,12.75.54,4.25,3.36,6.51,7.66,7,5.18.59,9.25-.64,11.57-5.86,1.75-3.93,2.22-7.81.51-11.77-.25-.58-1.57-.97-2.39-.97-2.21.01-2.5,1.88-2.2,3.34.88,4.34-.18,6.42-5.06,5.62-5.89-.97-2.36-5.01-2.12-7.29.78-7.43.26-16.15,12.83-13.23,3.7.86,5.04,1.48,6.19,4.92,1.46,4.36,1.13,8.69,1.31,13.06Z"/><path class="cls-1" d="M1408.34,754.03c.11,12.94-7.14,21.58-18.39,21.92-10.51.32-19.44-10.34-19.7-23.51-.25-12.77,7.19-21.44,18.55-21.58,11.2-.14,19.43,9.61,19.55,23.17ZM1398.69,751.9c-.36-4.71-3.23-9.36-9.44-9.4-6.16-.04-9.65,4.3-9.44,10.56.2,5.94,2.86,10.46,9.53,10.48,6.59.02,9.5-3.9,9.35-11.65Z"/><path class="cls-1" d="M1381.17,666.43c-3.66.18-6.49.31-5.36-4.21.36-1.44.27-3.31-.36-4.63-1.89-3.91-1.77-11.47-7.04-10.24-4.24.99.74,6.9.57,10.74-.11,2.43.96,4.88,1.22,7.35.51,4.8-1.02,8.49-5.64,10.84-4.84,2.46-8.88.58-12.03-2.49-7.63-7.44-9.18-17.63-10.78-27.52-.77-4.74,4.02-2.41,6.12-3.34,3.06-1.35,3.65,1.02,3.36,3.58-.59,5.15.57,10.05,2.71,14.64.93,1.99,1.71,5.53,4.96,4.3,2.73-1.03,1.1-3.65.65-5.76-.99-4.57-2.29-9.19-2.44-13.82-.28-8.93,6.59-13.09,14.49-9.22,6.02,2.96,14.99,21.08,13.93,27.7-.61,3.78-3.5,1.17-4.35,2.06Z"/><path class="cls-1" d="M1398.74,823.89c-20.34.7-29.02-9.36-23.65-27.12,2.04-6.74,5.97-10.87,13.28-11.28,5.33-.3,10.66-.83,16-1.03,3.54-.14,7.93-2.39,7.78,4.92-.13,6.17-1.75,8.4-7.93,7.73-4.35-.47-8.8.11-13.2-.05-5.18-.19-7.48,2.2-7.52,7.28-.05,5.34,1.96,8.29,7.78,8.02,5.02-.24,10.07-.24,15.09.02,1.79.09,4.9-1.99,5.28,1.64.35,3.37-.16,6.83-.3,10.25-1.06-.12-2.12-.33-3.18-.35-3.14-.05-6.29-.02-9.43-.02Z"/><path class="cls-1" d="M183.94,892.34c1.94,5.45,6.27,10.01-.77,15.44-3.56,2.74,2.07,17.94,7.02,18.94,5.32,1.07,6.14,4.9,5.42,8.09-1.11,4.86-5.58,2.03-8.52,1.71-7.47-.82-14.88-2.27-22.35-3.11-4.67-.53-9.02-.31-10.2-6.73-1.05-5.69-1.8-9.65,4.38-13.69,8.89-5.81,16.55-13.51,25.02-20.65ZM177.05,923.97c.12.22.22.45.38.64.03.03.31-.16.48-.25-.34-.05-.67-.1-1.01-.15.73-3.14,1.07-7.72-1.75-8.29-4.02-.81-6.52,3.23-9.53,8.05,4.76,0,8.09,0,11.43,0Z"/><path class="cls-1" d="M176.39,839.5c-11.7-4.68-23.37-9.13-34.85-14.04-4.61-1.97-1.95-6.61-2.23-9.99-.19-2.3-1.56-5.22,2.58-6.93,11.27-4.67,22.24-10.07,35.01-15.95-.96,6.22,3.43,12.17-5.7,14.82-2.95.86-2.51,17.14.03,19.43q5.85,5.26,5.15,12.66ZM150.61,817.11c3.94,2.78,7.11,5.89,10.6,3.9,2.12-1.21,1.93-6.45.12-7.47-3.5-1.97-6.42,1.89-10.72,3.57Z"/><path class="cls-1" d="M196.54,683.26c-7.76-7.03-15.31-14.12-23.16-20.86-3.96-3.4-6.72-6.03-3.84-12.11,2.48-5.24,4.92-7.03,10.83-6.81,8.4.32,16.86-1.2,25.31-1.49,2.33-.08,6.91-1.86,6.74,2.05-.14,3.28-.63,7.97-6.05,9.22-8.03,1.86-12.64,13.26-8.56,19.94q2.27,3.71-1.28,10.06ZM193.47,653.76c-4.68-.67-8.59-1.09-12.57,1.98,2.94,2.94,4.83,6.27,8.65,7.94,1.17-2.95,2.31-5.85,3.92-9.92Z"/><path class="cls-1" d="M1411.73,839.23c-1.19,10.32-2.55,20.59-3.44,30.9-.24,2.82.07,5.32-3.71,4.12-2.46-.78-7.45.47-5.84-4.81,3.45-11.27-4.2-11.23-11.48-11.68-3.14-.2-6.33-.62-9.43-.29-6.89.74-5.51-3.84-5.57-7.84-.1-5.78,3.16-5.63,7.41-4.83,4.3.81,8.74.87,13.05,1.65,7.07,1.29,10.43-1.84,9.5-8.56-.7-5.06,1.65-4.81,5.11-4.62,4.12.23,5.81,1.9,4.38,5.97Z"/><path class="cls-1" d="M150.65,712.57c.61-9.23,2.25-16.18,12.48-17.06,4.57-.39,5.2-3.64,1.59-6.04-8.44-5.6-5.85-12.02-1.93-19.24,4.74,5.47,9.56,10.71,14.01,16.26,2.93,3.65,6.47,6.09,11.01,6.43,5.37.4,6.74,2,4.74,7.48-1.58,4.33-1.85,7.43-7.59,4.29-7.97-4.37-14.94,1.17-22.15,3.43-3.86,1.21-7.6,2.77-12.14,4.45Z"/><path class="cls-1" d="M178.86,990.9c-8.46-8.54-4.45-16.41,2.85-24.87-9.99-1.47-19.3-2.63-18.82-15.23,6.71,1.25,13.82,2.03,20.57,4.03,4.33,1.28,8.29,1.35,11.63-.99,9.07-6.34,8.86,1.88,11.04,6.58.57,1.23.93,2.74-.68,2.92-16.51,1.87-17.66,18.46-26.59,27.56Z"/><path class="cls-1" d="M184.6,732.24c-1.04,4.22.8,10.49-8.39,6.76-7.63-3.1-16.43-3.69-24.8-4.47-7.35-.68-4.58-5.26-3.94-8.69.52-2.79.54-6.03,6.14-4.08,8.45,2.94,17.61,4.01,26.55,5.3,3.55.51,5.27,1.3,4.44,5.18Z"/><path class="cls-1" d="M1067.99,955.96c-.8-.24-1.61-.49-2.41-.73l.76-1c.55.58,1.1,1.16,1.65,1.75,0,0,0-.02,0-.02Z"/><path class="cls-1" d="M673.5,895.88c-.45.37-1.08,1.15-1.33,1.04-1.23-.53-.72-1.47-.29-2.32.54.43,1.08.85,1.62,1.28Z"/></g></svg>